<mxfile host="app.diagrams.net" modified="2023-07-06T00:09:04.376Z" agent="Mozilla/5.0 (Windows NT 10.0; Win64; x64) AppleWebKit/537.36 (KHTML, like Gecko) Chrome/114.0.0.0 Safari/537.36" etag="-PoygTm0kyI7RlK-5LZG" version="21.6.1" type="device">
  <diagram name="PÃ¡gina-1" id="gBcLYM-PzOItD12ETp0Q">
    <mxGraphModel dx="1434" dy="796" grid="1" gridSize="10" guides="1" tooltips="1" connect="1" arrows="1" fold="1" page="1" pageScale="1" pageWidth="827" pageHeight="1169" math="0" shadow="0">
      <root>
        <mxCell id="0" />
        <mxCell id="1" parent="0" />
        <mxCell id="kk27qLPNZLjl6ZcmT7MS-1" value="" style="strokeWidth=1;shadow=0;dashed=0;align=center;html=1;shape=mxgraph.mockup.containers.browserWindow;rSize=0;strokeColor=#666666;strokeColor2=#008cff;strokeColor3=#c4c4c4;mainText=,;recursiveResize=0;" vertex="1" parent="1">
          <mxGeometry x="80" y="230" width="710" height="500" as="geometry" />
        </mxCell>
        <mxCell id="kk27qLPNZLjl6ZcmT7MS-2" value="Page 1" style="strokeWidth=1;shadow=0;dashed=0;align=center;html=1;shape=mxgraph.mockup.containers.anchor;fontSize=17;fontColor=#666666;align=left;whiteSpace=wrap;" vertex="1" parent="kk27qLPNZLjl6ZcmT7MS-1">
          <mxGeometry x="60" y="12" width="110" height="26" as="geometry" />
        </mxCell>
        <mxCell id="kk27qLPNZLjl6ZcmT7MS-3" value="https://www.draw.io" style="strokeWidth=1;shadow=0;dashed=0;align=center;html=1;shape=mxgraph.mockup.containers.anchor;rSize=0;fontSize=17;fontColor=#666666;align=left;" vertex="1" parent="kk27qLPNZLjl6ZcmT7MS-1">
          <mxGeometry x="130" y="60" width="250" height="26" as="geometry" />
        </mxCell>
        <mxCell id="kk27qLPNZLjl6ZcmT7MS-4" value="" style="rounded=0;whiteSpace=wrap;html=1;" vertex="1" parent="kk27qLPNZLjl6ZcmT7MS-1">
          <mxGeometry x="110" y="120" width="480" height="70" as="geometry" />
        </mxCell>
        <mxCell id="kk27qLPNZLjl6ZcmT7MS-5" value="" style="rounded=0;whiteSpace=wrap;html=1;" vertex="1" parent="kk27qLPNZLjl6ZcmT7MS-1">
          <mxGeometry x="290" y="200" width="120" height="40" as="geometry" />
        </mxCell>
        <mxCell id="kk27qLPNZLjl6ZcmT7MS-6" value="" style="rounded=0;whiteSpace=wrap;html=1;" vertex="1" parent="kk27qLPNZLjl6ZcmT7MS-1">
          <mxGeometry x="50" y="280" width="210" height="30" as="geometry" />
        </mxCell>
        <mxCell id="kk27qLPNZLjl6ZcmT7MS-7" value="" style="rounded=0;whiteSpace=wrap;html=1;" vertex="1" parent="kk27qLPNZLjl6ZcmT7MS-1">
          <mxGeometry x="320" y="280" width="240" height="30" as="geometry" />
        </mxCell>
        <mxCell id="kk27qLPNZLjl6ZcmT7MS-8" value="" style="rounded=0;whiteSpace=wrap;html=1;" vertex="1" parent="kk27qLPNZLjl6ZcmT7MS-1">
          <mxGeometry x="95" y="340" width="120" height="60" as="geometry" />
        </mxCell>
        <mxCell id="kk27qLPNZLjl6ZcmT7MS-9" value="" style="rounded=0;whiteSpace=wrap;html=1;" vertex="1" parent="kk27qLPNZLjl6ZcmT7MS-1">
          <mxGeometry x="390" y="340" width="120" height="60" as="geometry" />
        </mxCell>
        <mxCell id="kk27qLPNZLjl6ZcmT7MS-10" value="" style="rounded=0;whiteSpace=wrap;html=1;" vertex="1" parent="kk27qLPNZLjl6ZcmT7MS-1">
          <mxGeometry x="620" y="130" width="60" height="45" as="geometry" />
        </mxCell>
      </root>
    </mxGraphModel>
  </diagram>
</mxfile>
